<svg id="Layer_1" data-name="Layer 1" xmlns="http://www.w3.org/2000/svg" viewBox="0 0 498.12 360"><path d="M233.19,465.86a31,31,0,1,0,31,31A31,31,0,0,0,233.19,465.86Zm-5.08,26.32a8,8,0,1,1,8-7.95A8,8,0,0,1,228.11,492.18Z" transform="translate(-56.94 -216)"/><path d="M395.88,465.86a31,31,0,1,0,31,31A31,31,0,0,0,395.88,465.86Zm-5.07,26.32a8,8,0,1,1,7.95-7.95A8,8,0,0,1,390.81,492.18Z" transform="translate(-56.94 -216)"/><path d="M161.75,486.73c-2.1,3.24-4.48,6.3-7,9.53-3.75,4.81-7.62,9.79-10.59,15.5-9.48,18.19-8.39,42.12,2.76,64.24h12.26c-.75-1.29-1.53-2.57-2.22-3.9-10-19.3-11.26-40-3.25-55.37,2.51-4.84,5.93-9.22,9.54-13.86,2.54-3.27,5.18-6.65,7.53-10.27,7.95-12.25,11.74-25.29,15.4-37.9,2.27-7.81,4.45-15.3,7.51-22.36a32.29,32.29,0,0,0,21.94,8c8.72,0,18.6-2.79,29.44-8.36,8.68-4.76,22.28-16.6,24.14-29.7A29.79,29.79,0,0,0,268,389.81l.5-.07c3.64-.51,6.31-.89,10.83-1.41,20.69-2.38,47.43-4.33,74,.21a30.48,30.48,0,0,0-1.6,13.76c1.88,13.11,15.47,24.94,24.27,29.77,10.76,5.53,20.6,8.3,29.29,8.3a32.63,32.63,0,0,0,19.52-6.18,139.87,139.87,0,0,1,6.12,15.1c3.5,9.73,7.12,19.81,15.49,29.75,17,20.23,25.05,46.13,22.07,71.07A85.69,85.69,0,0,1,461.13,576h11.58a95.49,95.49,0,0,0,6.47-24.62c3.34-27.87-5.59-56.77-24.51-79.27-7.13-8.47-10.27-17.21-13.6-26.47A128.3,128.3,0,0,0,432.59,426c6.46-10.28,7.67-24.83,8.61-37,.31-4.1.61-8,1.07-11.22l.5-3.3c2.22-14.47,5.94-38.69-8.39-47-18-10.46-41.92,13.42-56.21,27.67-1.43,1.43-2.71,2.7-3.8,3.75-5.54,5.33-11.67,11.82-16.29,19.59-28.9-5.45-57.83-3.35-80-.8-4.63.53-7.37.91-11.1,1.43l-3.42.48c-4.67-8.27-11.17-15.11-17-20.7-1.09-1.05-2.37-2.32-3.8-3.75-14.3-14.25-38.22-38.13-56.21-27.67-14.33,8.34-10.62,32.56-8.39,47l.49,3.31c.47,3.23.76,7.11,1.08,11.22.84,10.89,1.85,23.73,6.68,33.68-4.8,9.38-7.79,19.35-10.6,29C172.39,463.56,168.84,475.82,161.75,486.73Zm201.92-95.18a39.17,39.17,0,0,1,2.73-6.14c4-7.33,10.05-13.62,15.43-18.8,1.14-1.09,2.45-2.41,3.94-3.88,9.69-9.66,32.38-32.25,43.19-26,8,4.65,4.74,25.88,3.17,36.08l-.52,3.41c-.51,3.59-.82,7.64-1.15,11.92-1,12.84-2.21,28.81-9.88,35.81-11,10-27.61,4.73-39.52-1.4-8.11-4.45-17.55-14-18.66-21.77A20.18,20.18,0,0,1,363.67,391.55ZM192,336.74a8.47,8.47,0,0,1,4.33-1.09c11.71,0,30.33,18.57,38.87,27.08,1.48,1.47,2.8,2.79,3.93,3.88,5.39,5.18,11.44,11.47,15.44,18.8a39.65,39.65,0,0,1,2.74,6.15,20.23,20.23,0,0,1,1.25,9.22c-1.1,7.74-10.54,17.33-18.53,21.71-12,6.18-28.68,11.47-39.65,1.47-7.66-7-8.89-23-9.88-35.8-.32-4.29-.63-8.33-1.15-11.92l-.51-3.42C187.26,362.62,184,341.39,192,336.74Z" transform="translate(-56.94 -216)"/><path d="M70.36,531.31c12,16.13,25.11,29.32,38.91,39.22A98.78,98.78,0,0,0,118,576h24.1l-1.34-.63c-9-4.18-17.55-8.11-25.17-13.59-12.91-9.25-25.2-21.67-36.56-36.91-4.63-6.21-9.87-13.24-11-20.83-2-13.68,6.87-27,14.71-38.68l.35-.52c11-16.38,10.5-35.8,10-54.57-.41-17.32-.8-33.67,7.73-46.15,3.54-5.16,8.92-9,14.62-13.1,1.86-1.33,3.72-2.67,5.53-4,18.12-13.89,26-30.47,34.26-48,2.8-5.91,5.69-12,9-18.12,6.23-11.36,17.69-21.56,29.19-26,8.79-3.37,16.2-1.36,25.59,1.18,3.88,1.05,7.89,2.14,12.27,2.89,20.81,3.56,40.14-7.71,57.2-17.66l.56-.33c15.82-9.23,34.16-17.93,50.31-12.41,9.36,3.2,16.6,10.65,24.26,18.53,6.69,6.89,13.61,14,22.43,18.72,9.22,4.92,19.35,6.59,29.14,8.21,3.53.58,7.05,1.16,10.53,1.9,8.34,1.78,23.05,6.46,27.78,17.9a44.1,44.1,0,0,1,1.95,6.7,55.6,55.6,0,0,0,2.34,8c5.13,12.89,17,19.46,28.43,25.81,9.47,5.26,18.42,10.22,23,18.32,5.06,8.87,4,19.8,2.9,31.38-.89,9.26-1.81,18.83.28,28.21,3,13.22,9.71,25.55,16.24,37.47,5.26,9.61,10.23,18.68,13.38,28.16,6.24,18.82-.57,37.15-22.07,59.46-9.74,10.12-25.15,23.16-45.66,38.76H492c15.53-12.23,27.37-22.58,35.76-31.29,15.28-15.86,34.45-40.4,24.53-70.31-3.46-10.41-8.9-20.34-14.16-29.95-6.45-11.79-12.55-22.91-15.17-34.65-1.72-7.7-.92-16-.07-24.83,1.22-12.74,2.49-25.91-4.27-37.75-6.11-10.71-16.82-16.65-27.17-22.4s-19.94-11.06-23.66-20.38A49,49,0,0,1,466,298a53.05,53.05,0,0,0-2.47-8.31c-6.28-15.19-22.77-21.61-35.49-24.32-3.64-.77-7.33-1.39-11-2-9.34-1.54-18.16-3-25.82-7.08-7.34-3.92-13.38-10.14-19.78-16.72-8.21-8.45-16.7-17.18-28.5-21.22-20.23-6.92-41.29,2.84-59.22,13.3l-.55.33c-16.24,9.46-33.05,19.25-50,16.35-3.87-.66-7.63-1.68-11.27-2.67-9.93-2.7-20.22-5.48-32.27-.84-13.74,5.28-27.39,17.39-34.77,30.85-3.51,6.39-6.47,12.65-9.33,18.7-8.06,17.05-15,31.78-31.08,44.08-1.71,1.32-3.48,2.58-5.26,3.85-6.2,4.44-12.61,9-17.22,15.78-10.49,15.34-10,34.21-9.61,52.47.42,17.89.82,34.79-8.24,48.34l-.35.52c-8.48,12.67-19,28.45-16.41,46.24C58.86,515.88,65.24,524.44,70.36,531.31Z" transform="translate(-56.94 -216)"/><path d="M267.62,576h12.46a23.3,23.3,0,0,1-3.66-6.44c-4.1-11,2.85-27.51,8.43-40.75,1.85-4.38,3.59-8.52,4.9-12.3L291,512.9c3.67-11,11.32-33.82,21.95-34.37l.46,0c14.08,0,24.88,33.55,29.53,48,.71,2.21,1.34,4.18,1.9,5.82,2.7,7.89,5.49,17.21,5.71,26.53a44.58,44.58,0,0,1-.42,7.56,23.36,23.36,0,0,1-3.33,9.62h12a39.81,39.81,0,0,0,2-8.08,56.42,56.42,0,0,0,.54-9.36C361,547.78,358,537.47,355,528.81c-.54-1.59-1.15-3.5-1.84-5.63-6.27-19.47-17.86-55.43-39.75-55.43l-1.05,0c-18,.94-26.5,26.46-31.6,41.71L279.57,513c-1.19,3.45-2.87,7.43-4.64,11.64-6.32,15-14.19,33.67-8.61,48.68C266.68,574.26,267.19,575.1,267.62,576Z" transform="translate(-56.94 -216)"/></svg>