0
SECTION
2
HEADER
9
$INSUNITS
70
4
9
$ACADVER
1
AC1014
9
$HANDSEED
5
FFFF
0
ENDSEC
0
SECTION
2
TABLES
0
TABLE
2
VPORT
5
8
100
AcDbSymbolTable
0
ENDTAB
0
TABLE
2
LTYPE
5
5
100
AcDbSymbolTable
0
LTYPE
5
14
100
AcDbSymbolTableRecord
100
AcDbLinetypeTableRecord
2
BYBLOCK
70
0
0
LTYPE
5
15
100
AcDbSymbolTableRecord
100
AcDbLinetypeTableRecord
2
BYLAYER
70
0
0
ENDTAB
0
TABLE
2
LAYER
5
2
100
AcDbSymbolTable
70
2
0
LAYER
5
50
100
AcDbSymbolTableRecord
100
AcDbLayerTableRecord
2
0
70
0
6
CONTINUOUS
0
ENDTAB
0
TABLE
2
STYLE
5
3
100
AcDbSymbolTable
70
1
0
STYLE
5
11
100
AcDbSymbolTableRecord
100
AcDbTextStyleTableRecord
2
STANDARD
70
0
0
ENDTAB
0
TABLE
2
VIEW
5
6
100
AcDbSymbolTable
70
0
0
ENDTAB
0
TABLE
2
UCS
5
7
100
AcDbSymbolTable
70
0
0
ENDTAB
0
TABLE
2
APPID
5
9
100
AcDbSymbolTable
70
2
0
APPID
5
12
100
AcDbSymbolTableRecord
100
AcDbRegAppTableRecord
2
ACAD
70
0
0
ENDTAB
0
TABLE
2
DIMSTYLE
5
A
100
AcDbSymbolTable
70
1
0
ENDTAB
0
TABLE
2
BLOCK_RECORD
5
1
100
AcDbSymbolTable
70
1
0
BLOCK_RECORD
5
1F
100
AcDbSymbolTableRecord
100
AcDbBlockTableRecord
2
*MODEL_SPACE
0
BLOCK_RECORD
5
1B
100
AcDbSymbolTableRecord
100
AcDbBlockTableRecord
2
*PAPER_SPACE
0
ENDTAB
0
ENDSEC
0
SECTION
2
BLOCKS
0
BLOCK
5
20
100
AcDbEntity
100
AcDbBlockBegin
2
*MODEL_SPACE
0
ENDBLK
5
21
100
AcDbEntity
100
AcDbBlockEnd
0
BLOCK
5
1C
100
AcDbEntity
100
AcDbBlockBegin
2
*PAPER_SPACE
0
ENDBLK
5
1D
100
AcDbEntity
100
AcDbBlockEnd
0
ENDSEC
0
SECTION
2
ENTITIES
0
LWPOLYLINE
5
100
100
AcDbEntity
8
0
100
AcDbPolyline
90
24
70
1
43
0.0
10
-36.201091455437918
20
14.600000000008675
10
-573.79879322052511
20
14.599999999981764
42
-0.19891236737963169
10
-576.6272203452711
20
15.771572875235284
10
-582.93322447607807
20
22.077577006040265
42
1.0385472156258226
10
-609.07747260960332
20
-4.0666711274925094
10
-600.77145755123024
20
-12.372686185862687
42
-0.19891236737966411
10
-599.59988467597623
20
-15.201113310608845
10
-599.59988467593917
20
-561.79888668944113
42
-0.19891236737972262
10
-600.77145755119307
20
-564.62731381418826
10
-609.0774726095641
20
-572.9333288725602
42
1.0385472156258317
10
-582.93322447603327
20
-599.07757700608693
10
-576.62722034522778
20
-592.77157287528144
42
-0.19891236737963908
10
-573.79879322048214
20
-591.60000000002719
10
-36.201091455394831
20
-591.59999999997797
42
-0.19891236737963897
10
-33.372664330648639
20
-592.77157287523119
10
-27.066660199841138
20
-599.07757700603599
42
1.0385472156258035
10
-0.92241206631757822
20
-572.93332887250199
10
-9.228427124690711
20
-564.62731381413187
42
-0.19891236737965615
10
-10.399999999945205
20
-561.79888668938599
10
-10.399999999982132
20
-15.201113310578119
42
-0.19891236737967324
10
-9.2284271247283627
20
-12.372686185831675
10
-0.92241206635691242
20
-4.0666711274602836
42
1.0385472156258118
10
-27.066660199885796
20
22.077577006068569
10
-33.372664330691826
20
15.771572875262486
42
-0.19891236737965165
0
CIRCLE
5
101
100
AcDbEntity
8
0
100
AcDbCircle
10
-13.499993533219111
20
9.4999955392063828
30
-4.4408920985006262e-15
40
3.0000000000000004
210
6.3108872417680944e-30
220
1.4638053653474519e-26
230
1
0
CIRCLE
5
102
100
AcDbEntity
8
0
100
AcDbCircle
10
-596.49989114270113
20
-586.49999553922601
30
7.1409544943890069e-12
40
3.0000000000000004
210
-4.6870872462640012e-16
220
3.1121454789058998e-16
230
1
0
CIRCLE
5
103
100
AcDbEntity
8
0
100
AcDbCircle
10
-13.499993533177134
20
-586.4999955391711
30
6.6613381477509392e-14
40
3.0000000000000004
210
0
220
3.1121454789065196e-16
230
1
0
CIRCLE
5
104
100
AcDbEntity
8
0
100
AcDbCircle
10
-596.49989114274319
20
9.4999955391761155
30
7.0476957603204937e-12
40
3.0000000000000004
210
-4.6870872462639381e-16
220
1.4603984723130286e-26
230
1
0
CIRCLE
5
105
100
AcDbEntity
8
0
100
AcDbCircle
10
-13.499993533219111
20
9.4999955392063828
30
-4.4408920985006262e-15
40
3.0000000000000004
210
0
220
0
230
1
0
CIRCLE
5
106
100
AcDbEntity
8
0
100
AcDbCircle
10
-596.49989114274319
20
9.4999955391761155
30
7.0476957603204937e-12
40
2.9999999999999716
210
0
220
0
230
1
0
CIRCLE
5
107
100
AcDbEntity
8
0
100
AcDbCircle
10
-596.49989114270113
20
-586.49999553922601
30
7.1409544943890069e-12
40
2.9999999999999716
210
0
220
0
230
1
0
CIRCLE
5
108
100
AcDbEntity
8
0
100
AcDbCircle
10
-13.499993533177134
20
-586.4999955391711
30
6.6613381477509392e-14
40
2.9999999999999911
210
0
220
0
230
1
0
ARC
5
109
100
AcDbEntity
8
0
100
AcDbCircle
10
-36.201091455438046
20
18.600000000008791
30
7.2418483685494767e-13
40
4.0000000000001084
210
4.5508324956166172e-14
220
-1.9325866248460655e-13
230
1
100
AcDbArc
50
270.00000000000182
51
314.9999999999992
0
ARC
5
110
100
AcDbEntity
8
0
100
AcDbCircle
10
-6.3999999999822403
20
-15.20111331057775
30
-1.4920290085726998e-12
40
3.9999999999998663
210
3.585743528230818e-13
220
-2.3959172266210544e-13
230
1
100
AcDbArc
50
135.00000000000048
51
180
0
ARC
5
111
100
AcDbEntity
8
0
100
AcDbCircle
10
-6.3999999999442228
20
-561.79888668938486
30
-9.3396383641711959e-13
40
4.0000000000009113
210
2.9899411755707199e-13
220
5.9473627755947112e-14
230
1
100
AcDbArc
50
180
51
225.00000000000546
0
ARC
5
112
100
AcDbEntity
8
0
100
AcDbCircle
10
-36.201091455394021
20
-595.59999999997785
30
5.6180741405673889e-13
40
3.999999999999782
210
9.0879618940800608e-14
220
1.3601096141571156e-13
230
1
100
AcDbArc
50
45.000000000013017
51
90.000000000011596
0
ARC
5
113
100
AcDbEntity
8
0
100
AcDbCircle
10
-573.79879322048066
20
-595.60000000002992
30
7.7306246977185623e-12
40
4.0000000000027569
210
-3.7714983455001582e-14
220
1.8960602576800096e-13
230
1
100
AcDbArc
50
90.000000000021174
51
134.99999999998619
0
ARC
5
114
100
AcDbEntity
8
0
100
AcDbCircle
10
-603.59988467594053
20
-561.79888668944147
30
7.0337538625467331e-12
40
4.0000000000012985
210
-4.5956974680727692e-15
220
8.6688592988733566e-14
230
1
100
AcDbArc
50
-44.999999999993079
51
0
0
ARC
5
115
100
AcDbEntity
8
0
100
AcDbCircle
10
-603.59988467597532
20
-15.201113310608489
30
6.9778946450261154e-12
40
3.9999999999991331
210
-7.5181876104113829e-14
220
6.1494102335358937e-14
230
1
100
AcDbArc
50
0
51
45.000000000007645
0
ARC
5
116
100
AcDbEntity
8
0
100
AcDbCircle
10
-573.798793220525
20
18.599999999982153
30
7.0592039735648573e-12
40
4.0000000000003748
210
-2.9532279878476193e-14
220
-1.0648614483464927e-14
230
1
100
AcDbArc
50
225.00000000000779
51
269.99999999999835
0
ARC
5
117
100
AcDbEntity
8
0
100
AcDbCircle
10
-13.499993533219115
20
9.4999955392063846
30
-1.7241560045518108e-14
40
18.5
210
-1.81853847975955e-17
220
-1.0373522950455232e-15
230
1
100
AcDbArc
50
-47.166571933932758
51
137.16657193393283
0
LINE
5
118
100
AcDbEntity
8
0
100
AcDbLine
10
-0.92241206635691342
20
-4.0666711274602836
30
-3.1086244689504383e-14
11
-9.2284271247283627
21
-12.372686185831675
31
1.9984014443252818e-13
0
ENDSEC
0
SECTION
2
OBJECTS
0
DICTIONARY
5
C
100
AcDbDictionary
3
ACAD_GROUP
350
D
3
ACAD_MLINESTYLE
350
17
0
DICTIONARY
5
D
100
AcDbDictionary
0
DICTIONARY
5
1A
330
C
100
AcDbDictionary
0
DICTIONARY
5
17
100
AcDbDictionary
0
ENDSEC
0
EOF
